<?xml version="1.0" encoding="us-ascii" standalone="no"?><svg xmlns="http://www.w3.org/2000/svg" xmlns:xlink="http://www.w3.org/1999/xlink" contentStyleType="text/css" height="823px" preserveAspectRatio="none" style="width:596px;height:823px;background:#FFFFFF;" version="1.1" viewBox="0 0 596 823" width="596px" zoomAndPan="magnify"><defs/><g><!--class Nutzer--><g id="elem_Nutzer"><rect codeLine="2" fill="#F1F1F1" height="143.3396" id="Nutzer" rx="2.5" ry="2.5" style="stroke:#181818;stroke-width:0.5;" width="120" x="311" y="7"/><ellipse cx="344.9" cy="23" fill="#ADD1B2" rx="11" ry="11" style="stroke:#181818;stroke-width:1.0;"/><path d="M347.8688,28.6406 Q347.2906,28.9375 346.65,29.0781 Q346.0094,29.2344 345.3063,29.2344 Q342.8063,29.2344 341.4781,27.5938 Q340.1656,25.9375 340.1656,22.8125 Q340.1656,19.6875 341.4781,18.0313 Q342.8063,16.375 345.3063,16.375 Q346.0094,16.375 346.65,16.5313 Q347.3063,16.6875 347.8688,16.9844 L347.8688,19.7031 Q347.2438,19.125 346.65,18.8594 Q346.0563,18.5781 345.4313,18.5781 Q344.0875,18.5781 343.4,19.6563 Q342.7125,20.7188 342.7125,22.8125 Q342.7125,24.9063 343.4,25.9844 Q344.0875,27.0469 345.4313,27.0469 Q346.0563,27.0469 346.65,26.7813 Q347.2438,26.5 347.8688,25.9219 L347.8688,28.6406 Z " fill="#000000"/><text fill="#000000" font-family="sans-serif" font-size="14" lengthAdjust="spacing" textLength="46" x="363.1" y="28.432">Nutzer</text><line style="stroke:#181818;stroke-width:0.5;" x1="312" x2="430" y1="39" y2="39"/><text fill="#000000" font-family="sans-serif" font-size="14" lengthAdjust="spacing" textLength="40" x="317" y="57.9659">Name</text><text fill="#000000" font-family="sans-serif" font-size="14" lengthAdjust="spacing" textLength="42" x="317" y="77.0339">E-Mail</text><text fill="#000000" font-family="sans-serif" font-size="14" lengthAdjust="spacing" textLength="60" x="317" y="96.1018">Passwort</text><text fill="#000000" font-family="sans-serif" font-size="14" lengthAdjust="spacing" textLength="108" x="317" y="115.1697">Telefonnummer</text><text fill="#000000" font-family="sans-serif" font-size="14" lengthAdjust="spacing" textLength="33" x="317" y="134.2376">Rolle</text><line style="stroke:#181818;stroke-width:0.5;" x1="312" x2="430" y1="142.3396" y2="142.3396"/></g><!--class Gegenstand--><g id="elem_Gegenstand"><rect codeLine="10" fill="#F1F1F1" height="181.4754" id="Gegenstand" rx="2.5" ry="2.5" style="stroke:#181818;stroke-width:0.5;" width="114" x="194" y="229"/><ellipse cx="209" cy="245" fill="#ADD1B2" rx="11" ry="11" style="stroke:#181818;stroke-width:1.0;"/><path d="M211.9688,250.6406 Q211.3906,250.9375 210.75,251.0781 Q210.1094,251.2344 209.4063,251.2344 Q206.9063,251.2344 205.5781,249.5938 Q204.2656,247.9375 204.2656,244.8125 Q204.2656,241.6875 205.5781,240.0313 Q206.9063,238.375 209.4063,238.375 Q210.1094,238.375 210.75,238.5313 Q211.4063,238.6875 211.9688,238.9844 L211.9688,241.7031 Q211.3438,241.125 210.75,240.8594 Q210.1563,240.5781 209.5313,240.5781 Q208.1875,240.5781 207.5,241.6563 Q206.8125,242.7188 206.8125,244.8125 Q206.8125,246.9063 207.5,247.9844 Q208.1875,249.0469 209.5313,249.0469 Q210.1563,249.0469 210.75,248.7813 Q211.3438,248.5 211.9688,247.9219 L211.9688,250.6406 Z " fill="#000000"/><text fill="#000000" font-family="sans-serif" font-size="14" lengthAdjust="spacing" textLength="82" x="223" y="250.432">Gegenstand</text><line style="stroke:#181818;stroke-width:0.5;" x1="195" x2="307" y1="261" y2="261"/><text fill="#000000" font-family="sans-serif" font-size="14" lengthAdjust="spacing" textLength="40" x="200" y="279.9659">Name</text><text fill="#000000" font-family="sans-serif" font-size="14" lengthAdjust="spacing" textLength="65" x="200" y="299.0339">Kategorie</text><text fill="#000000" font-family="sans-serif" font-size="14" lengthAdjust="spacing" textLength="58" x="200" y="318.1018">Standort</text><text fill="#000000" font-family="sans-serif" font-size="14" lengthAdjust="spacing" textLength="55" x="200" y="337.1697">Zustand</text><text fill="#000000" font-family="sans-serif" font-size="14" lengthAdjust="spacing" textLength="46" x="200" y="356.2376">Anzahl</text><text fill="#000000" font-family="sans-serif" font-size="14" lengthAdjust="spacing" textLength="94" x="200" y="375.3055">Beschreibung</text><text fill="#000000" font-family="sans-serif" font-size="14" lengthAdjust="spacing" textLength="26" x="200" y="394.3734">Bild</text><line style="stroke:#181818;stroke-width:0.5;" x1="195" x2="307" y1="402.4754" y2="402.4754"/></g><!--class Ausleihe--><g id="elem_Ausleihe"><rect codeLine="20" fill="#F1F1F1" height="124.2717" id="Ausleihe" rx="2.5" ry="2.5" style="stroke:#181818;stroke-width:0.5;" width="124" x="334" y="489"/><ellipse cx="364.3" cy="505" fill="#ADD1B2" rx="11" ry="11" style="stroke:#181818;stroke-width:1.0;"/><path d="M367.2688,510.6406 Q366.6906,510.9375 366.05,511.0781 Q365.4094,511.2344 364.7063,511.2344 Q362.2063,511.2344 360.8781,509.5938 Q359.5656,507.9375 359.5656,504.8125 Q359.5656,501.6875 360.8781,500.0313 Q362.2063,498.375 364.7063,498.375 Q365.4094,498.375 366.05,498.5313 Q366.7063,498.6875 367.2688,498.9844 L367.2688,501.7031 Q366.6438,501.125 366.05,500.8594 Q365.4563,500.5781 364.8313,500.5781 Q363.4875,500.5781 362.8,501.6563 Q362.1125,502.7188 362.1125,504.8125 Q362.1125,506.9063 362.8,507.9844 Q363.4875,509.0469 364.8313,509.0469 Q365.4563,509.0469 366.05,508.7813 Q366.6438,508.5 367.2688,507.9219 L367.2688,510.6406 Z " fill="#000000"/><text fill="#000000" font-family="sans-serif" font-size="14" lengthAdjust="spacing" textLength="58" x="381.7" y="510.432">Ausleihe</text><line style="stroke:#181818;stroke-width:0.5;" x1="335" x2="457" y1="521" y2="521"/><text fill="#000000" font-family="sans-serif" font-size="14" lengthAdjust="spacing" textLength="76" x="340" y="539.9659">Startdatum</text><text fill="#000000" font-family="sans-serif" font-size="14" lengthAdjust="spacing" textLength="70" x="340" y="559.0339">Enddatum</text><text fill="#000000" font-family="sans-serif" font-size="14" lengthAdjust="spacing" textLength="42" x="340" y="578.1018">Status</text><text fill="#000000" font-family="sans-serif" font-size="14" lengthAdjust="spacing" textLength="112" x="340" y="597.1697">&#220;bergabetermin</text><line style="stroke:#181818;stroke-width:0.5;" x1="335" x2="457" y1="605.2717" y2="605.2717"/></g><!--class AusleihHistorie--><g id="elem_AusleihHistorie"><rect codeLine="27" fill="#F1F1F1" height="124.2717" id="AusleihHistorie" rx="2.5" ry="2.5" style="stroke:#181818;stroke-width:0.5;" width="134" x="230" y="692"/><ellipse cx="245" cy="708" fill="#ADD1B2" rx="11" ry="11" style="stroke:#181818;stroke-width:1.0;"/><path d="M247.9688,713.6406 Q247.3906,713.9375 246.75,714.0781 Q246.1094,714.2344 245.4063,714.2344 Q242.9063,714.2344 241.5781,712.5938 Q240.2656,710.9375 240.2656,707.8125 Q240.2656,704.6875 241.5781,703.0313 Q242.9063,701.375 245.4063,701.375 Q246.1094,701.375 246.75,701.5313 Q247.4063,701.6875 247.9688,701.9844 L247.9688,704.7031 Q247.3438,704.125 246.75,703.8594 Q246.1563,703.5781 245.5313,703.5781 Q244.1875,703.5781 243.5,704.6563 Q242.8125,705.7188 242.8125,707.8125 Q242.8125,709.9063 243.5,710.9844 Q244.1875,712.0469 245.5313,712.0469 Q246.1563,712.0469 246.75,711.7813 Q247.3438,711.5 247.9688,710.9219 L247.9688,713.6406 Z " fill="#000000"/><text fill="#000000" font-family="sans-serif" font-size="14" lengthAdjust="spacing" textLength="102" x="259" y="713.432">AusleihHistorie</text><line style="stroke:#181818;stroke-width:0.5;" x1="231" x2="363" y1="724" y2="724"/><text fill="#000000" font-family="sans-serif" font-size="14" lengthAdjust="spacing" textLength="94" x="236" y="742.9659">Ausleihdatum</text><text fill="#000000" font-family="sans-serif" font-size="14" lengthAdjust="spacing" textLength="110" x="236" y="762.0339">R&#252;ckgabedatum</text><text fill="#000000" font-family="sans-serif" font-size="14" lengthAdjust="spacing" textLength="100" x="236" y="781.1018">ZustandVorher</text><text fill="#000000" font-family="sans-serif" font-size="14" lengthAdjust="spacing" textLength="113" x="236" y="800.1697">ZustandNachher</text><line style="stroke:#181818;stroke-width:0.5;" x1="231" x2="363" y1="808.2717" y2="808.2717"/></g><!--class Standort--><g id="elem_Standort"><rect codeLine="34" fill="#F1F1F1" height="86.1358" id="Standort" rx="2.5" ry="2.5" style="stroke:#181818;stroke-width:0.5;" width="106" x="7" y="508"/><ellipse cx="29.2" cy="524" fill="#ADD1B2" rx="11" ry="11" style="stroke:#181818;stroke-width:1.0;"/><path d="M32.1688,529.6406 Q31.5906,529.9375 30.95,530.0781 Q30.3094,530.2344 29.6063,530.2344 Q27.1063,530.2344 25.7781,528.5938 Q24.4656,526.9375 24.4656,523.8125 Q24.4656,520.6875 25.7781,519.0313 Q27.1063,517.375 29.6063,517.375 Q30.3094,517.375 30.95,517.5313 Q31.6063,517.6875 32.1688,517.9844 L32.1688,520.7031 Q31.5438,520.125 30.95,519.8594 Q30.3563,519.5781 29.7313,519.5781 Q28.3875,519.5781 27.7,520.6563 Q27.0125,521.7188 27.0125,523.8125 Q27.0125,525.9063 27.7,526.9844 Q28.3875,528.0469 29.7313,528.0469 Q30.3563,528.0469 30.95,527.7813 Q31.5438,527.5 32.1688,526.9219 L32.1688,529.6406 Z " fill="#000000"/><text fill="#000000" font-family="sans-serif" font-size="14" lengthAdjust="spacing" textLength="58" x="44.8" y="529.432">Standort</text><line style="stroke:#181818;stroke-width:0.5;" x1="8" x2="112" y1="540" y2="540"/><text fill="#000000" font-family="sans-serif" font-size="14" lengthAdjust="spacing" textLength="40" x="13" y="558.9659">Name</text><text fill="#000000" font-family="sans-serif" font-size="14" lengthAdjust="spacing" textLength="94" x="13" y="578.0339">Beschreibung</text><line style="stroke:#181818;stroke-width:0.5;" x1="8" x2="112" y1="586.1358" y2="586.1358"/></g><!--class Kategorie--><g id="elem_Kategorie"><rect codeLine="39" fill="#F1F1F1" height="86.1358" id="Kategorie" rx="2.5" ry="2.5" style="stroke:#181818;stroke-width:0.5;" width="106" x="148" y="508"/><ellipse cx="167.05" cy="524" fill="#ADD1B2" rx="11" ry="11" style="stroke:#181818;stroke-width:1.0;"/><path d="M170.0188,529.6406 Q169.4406,529.9375 168.8,530.0781 Q168.1594,530.2344 167.4563,530.2344 Q164.9563,530.2344 163.6281,528.5938 Q162.3156,526.9375 162.3156,523.8125 Q162.3156,520.6875 163.6281,519.0313 Q164.9563,517.375 167.4563,517.375 Q168.1594,517.375 168.8,517.5313 Q169.4563,517.6875 170.0188,517.9844 L170.0188,520.7031 Q169.3938,520.125 168.8,519.8594 Q168.2063,519.5781 167.5813,519.5781 Q166.2375,519.5781 165.55,520.6563 Q164.8625,521.7188 164.8625,523.8125 Q164.8625,525.9063 165.55,526.9844 Q166.2375,528.0469 167.5813,528.0469 Q168.2063,528.0469 168.8,527.7813 Q169.3938,527.5 170.0188,526.9219 L170.0188,529.6406 Z " fill="#000000"/><text fill="#000000" font-family="sans-serif" font-size="14" lengthAdjust="spacing" textLength="65" x="181.95" y="529.432">Kategorie</text><line style="stroke:#181818;stroke-width:0.5;" x1="149" x2="253" y1="540" y2="540"/><text fill="#000000" font-family="sans-serif" font-size="14" lengthAdjust="spacing" textLength="40" x="154" y="558.9659">Name</text><text fill="#000000" font-family="sans-serif" font-size="14" lengthAdjust="spacing" textLength="94" x="154" y="578.0339">Beschreibung</text><line style="stroke:#181818;stroke-width:0.5;" x1="149" x2="253" y1="586.1358" y2="586.1358"/></g><!--class Nutzungsbedingungen--><g id="elem_Nutzungsbedingungen"><rect codeLine="44" fill="#F1F1F1" height="86.1358" id="Nutzungsbedingungen" rx="2.5" ry="2.5" style="stroke:#181818;stroke-width:0.5;" width="190" x="399" y="711"/><ellipse cx="414" cy="727" fill="#ADD1B2" rx="11" ry="11" style="stroke:#181818;stroke-width:1.0;"/><path d="M416.9688,732.6406 Q416.3906,732.9375 415.75,733.0781 Q415.1094,733.2344 414.4063,733.2344 Q411.9063,733.2344 410.5781,731.5938 Q409.2656,729.9375 409.2656,726.8125 Q409.2656,723.6875 410.5781,722.0313 Q411.9063,720.375 414.4063,720.375 Q415.1094,720.375 415.75,720.5313 Q416.4063,720.6875 416.9688,720.9844 L416.9688,723.7031 Q416.3438,723.125 415.75,722.8594 Q415.1563,722.5781 414.5313,722.5781 Q413.1875,722.5781 412.5,723.6563 Q411.8125,724.7188 411.8125,726.8125 Q411.8125,728.9063 412.5,729.9844 Q413.1875,731.0469 414.5313,731.0469 Q415.1563,731.0469 415.75,730.7813 Q416.3438,730.5 416.9688,729.9219 L416.9688,732.6406 Z " fill="#000000"/><text fill="#000000" font-family="sans-serif" font-size="14" lengthAdjust="spacing" textLength="158" x="428" y="732.432">Nutzungsbedingungen</text><line style="stroke:#181818;stroke-width:0.5;" x1="400" x2="588" y1="743" y2="743"/><text fill="#000000" font-family="sans-serif" font-size="14" lengthAdjust="spacing" textLength="28" x="405" y="761.9659">Text</text><text fill="#000000" font-family="sans-serif" font-size="14" lengthAdjust="spacing" textLength="50" x="405" y="781.0339">Version</text><line style="stroke:#181818;stroke-width:0.5;" x1="400" x2="588" y1="789.1358" y2="789.1358"/></g><!--link Nutzer to Ausleihe--><g id="link_Nutzer_Ausleihe"><path codeLine="49" d="M383.2,150.02 C395.08,222.49 412.29,338.73 419,440 C419.56,448.43 420.04,450.62 419,459 C417.79,468.7 417.2023,473.0053 414.9923,482.8653 " fill="none" id="Nutzer-to-Ausleihe" style="stroke:#181818;stroke-width:1.0;"/><polygon fill="#181818" points="413.68,488.72,419.5516,480.8127,414.7736,483.8411,411.7452,479.063,413.68,488.72" style="stroke:#181818;stroke-width:1.0;"/><text fill="#000000" font-family="sans-serif" font-size="13" lengthAdjust="spacing" textLength="33" x="417" y="324.897">t&#228;tigt</text><text fill="#000000" font-family="sans-serif" font-size="13" lengthAdjust="spacing" textLength="7" x="377.0972" y="172.188">1</text><text fill="#000000" font-family="sans-serif" font-size="13" lengthAdjust="spacing" textLength="20" x="394.616" y="477.0172">0..*</text></g><!--link Nutzer to Gegenstand--><g id="link_Nutzer_Gegenstand"><path codeLine="50" d="M335.48,150.24 C323.11,174.88 311.7624,197.488 298.7224,223.458 " fill="none" id="Nutzer-to-Gegenstand" style="stroke:#181818;stroke-width:1.0;"/><polygon fill="#181818" points="296.03,228.82,303.6432,222.5719,298.2736,224.3517,296.4939,218.9821,296.03,228.82" style="stroke:#181818;stroke-width:1.0;"/><text fill="#000000" font-family="sans-serif" font-size="13" lengthAdjust="spacing" textLength="56" x="319" y="194.897">verwaltet</text><text fill="#000000" font-family="sans-serif" font-size="13" lengthAdjust="spacing" textLength="7" x="324.4561" y="172.4307">1</text><text fill="#000000" font-family="sans-serif" font-size="13" lengthAdjust="spacing" textLength="20" x="279.0404" y="217.2036">0..*</text></g><!--link Gegenstand to Ausleihe--><g id="link_Gegenstand_Ausleihe"><path codeLine="51" d="M274.21,410.34 C280.56,427.21 288.41,444.19 298,459 C307.78,474.1 316.2877,484.2489 329.4377,496.8489 " fill="none" id="Gegenstand-to-Ausleihe" style="stroke:#181818;stroke-width:1.0;"/><polygon fill="#181818" points="333.77,501,330.039,491.8852,330.1598,497.5408,324.5042,497.6616,333.77,501" style="stroke:#181818;stroke-width:1.0;"/><text fill="#000000" font-family="sans-serif" font-size="13" lengthAdjust="spacing" textLength="115" x="299" y="454.897">wird ausgeliehen in</text><text fill="#000000" font-family="sans-serif" font-size="13" lengthAdjust="spacing" textLength="7" x="268.8422" y="432.4732">1</text><text fill="#000000" font-family="sans-serif" font-size="13" lengthAdjust="spacing" textLength="20" x="305.8698" y="491.5223">0..*</text></g><!--link Ausleihe to AusleihHistorie--><g id="link_Ausleihe_AusleihHistorie"><path codeLine="52" d="M364.1,613.04 C358.99,623.02 353.81,633.28 349,643 C341.23,658.72 335.5954,670.3761 328.0654,686.2961 " fill="none" id="Ausleihe-to-AusleihHistorie" style="stroke:#181818;stroke-width:1.0;"/><polygon fill="#181818" points="325.5,691.72,332.9641,685.2945,327.6379,687.2001,325.7322,681.8739,325.5,691.72" style="stroke:#181818;stroke-width:1.0;"/><text fill="#000000" font-family="sans-serif" font-size="13" lengthAdjust="spacing" textLength="83" x="350" y="657.897">dokumentiert</text><text fill="#000000" font-family="sans-serif" font-size="13" lengthAdjust="spacing" textLength="7" x="353.0069" y="635.1183">1</text><text fill="#000000" font-family="sans-serif" font-size="13" lengthAdjust="spacing" textLength="7" x="321.5469" y="680.0172">1</text></g><!--link Gegenstand to Kategorie--><g id="link_Gegenstand_Kategorie"><path codeLine="53" d="M206.53,410.19 C203.06,420.06 200.09,430.12 198,440 C193.33,462.05 193.1219,481.1691 194.7719,501.8091 " fill="none" id="Gegenstand-to-Kategorie" style="stroke:#181818;stroke-width:1.0;"/><polygon fill="#181818" points="195.25,507.79,198.5201,498.4999,194.8516,502.8059,190.5455,499.1374,195.25,507.79" style="stroke:#181818;stroke-width:1.0;"/><text fill="#000000" font-family="sans-serif" font-size="13" lengthAdjust="spacing" textLength="58" x="199" y="454.897">geh&#246;rt zu</text><text fill="#000000" font-family="sans-serif" font-size="13" lengthAdjust="spacing" textLength="20" x="182.0192" y="432.3107">0..*</text><text fill="#000000" font-family="sans-serif" font-size="13" lengthAdjust="spacing" textLength="7" x="186.718" y="496.1698">1</text></g><!--link Gegenstand to Standort--><g id="link_Gegenstand_Standort"><path codeLine="54" d="M193.84,352.63 C161.06,373.67 121.49,403.93 96,440 C81.8,460.1 74.3807,480.3255 69.0107,502.0355 " fill="none" id="Gegenstand-to-Standort" style="stroke:#181818;stroke-width:1.0;"/><polygon fill="#181818" points="67.57,507.86,73.614,500.0838,68.7706,503.0063,65.8481,498.1628,67.57,507.86" style="stroke:#181818;stroke-width:1.0;"/><text fill="#000000" font-family="sans-serif" font-size="13" lengthAdjust="spacing" textLength="90" x="97" y="454.897">befindet sich in</text><text fill="#000000" font-family="sans-serif" font-size="13" lengthAdjust="spacing" textLength="20" x="166.0746" y="352.3882">0..*</text><text fill="#000000" font-family="sans-serif" font-size="13" lengthAdjust="spacing" textLength="7" x="61.2441" y="496.2514">1</text></g><!--link Ausleihe to Nutzungsbedingungen--><g id="link_Ausleihe_Nutzungsbedingungen"><path codeLine="55" d="M425.8,613.13 C441.23,644.77 457.0509,677.2167 470.8609,705.5467 " fill="none" id="Ausleihe-to-Nutzungsbedingungen" style="stroke:#181818;stroke-width:1.0;"/><polygon fill="#181818" points="473.49,710.94,473.1419,701.0973,471.2991,706.4456,465.9508,704.6027,473.49,710.94" style="stroke:#181818;stroke-width:1.0;"/><text fill="#000000" font-family="sans-serif" font-size="13" lengthAdjust="spacing" textLength="60" x="448" y="657.897">akzeptiert</text><text fill="#000000" font-family="sans-serif" font-size="13" lengthAdjust="spacing" textLength="20" x="408.0894" y="635.2187">0..*</text><text fill="#000000" font-family="sans-serif" font-size="13" lengthAdjust="spacing" textLength="7" x="462.5133" y="699.3446">1</text></g><!--SRC=[VL7BJiCm4BpdAwmSaLhHQmv8HK8W8IfKgXwuESdMNjLnaBscA8W_uSWtSEAM7yFEgutwE7cyZzdPsKnnQzd2KGM6VKQCBNW1_hcRF75K7Zpx_AuqvE4A56nAhLrHWF7_PQaKH5zHb3Kazo10M-8wRuXwfaTE84g30R-4R4lswffIZ-QwuZACkWMRIGEOEYt25rM-Pvyxgm0bDDoUnr3EoHL1givxwEFah0VrTmf6y1G8J87wYEO1BGLDhT8-sjCiwxzi6xhxG2TsNHhPRDxz5poJ8J2mz_iTEZdQQgWSNEaKN2mEv_41wmMX5Xw1RjfMy16iN8EnM3PBTeUCPp6RJ6vOV3sTNiLxxn96zG-Xe3E51oTCs3kO7LS451s4ppFlqEICEoj08KYlqDi-f8UsMNnqWeJbvTOLe0d1Z8UrG_h6lMS94o3hNszqvIuq3ET8M0eRr3aGivZ9iRHnpocl4yQt5Ror-lu1]--></g></svg>