<?xml version="1.0" encoding="us-ascii" standalone="no"?><svg xmlns="http://www.w3.org/2000/svg" xmlns:xlink="http://www.w3.org/1999/xlink" contentStyleType="text/css" height="1134px" preserveAspectRatio="none" style="width:957px;height:1134px;background:#FFFFFF;" version="1.1" viewBox="0 0 957 1134" width="957px" zoomAndPan="magnify"><defs/><g><!--class Nutzer--><g id="elem_Nutzer"><rect codeLine="2" fill="#F1F1F1" height="143.3396" id="Nutzer" rx="2.5" ry="2.5" style="stroke:#181818;stroke-width:0.5;" width="128" x="248.27" y="172"/><ellipse cx="285.77" cy="188" fill="#ADD1B2" rx="11" ry="11" style="stroke:#181818;stroke-width:1.0;"/><path d="M288.7388,193.6406 Q288.1606,193.9375 287.52,194.0781 Q286.8794,194.2344 286.1763,194.2344 Q283.6763,194.2344 282.3481,192.5938 Q281.0356,190.9375 281.0356,187.8125 Q281.0356,184.6875 282.3481,183.0313 Q283.6763,181.375 286.1763,181.375 Q286.8794,181.375 287.52,181.5313 Q288.1763,181.6875 288.7388,181.9844 L288.7388,184.7031 Q288.1138,184.125 287.52,183.8594 Q286.9263,183.5781 286.3013,183.5781 Q284.9575,183.5781 284.27,184.6563 Q283.5825,185.7188 283.5825,187.8125 Q283.5825,189.9063 284.27,190.9844 Q284.9575,192.0469 286.3013,192.0469 Q286.9263,192.0469 287.52,191.7813 Q288.1138,191.5 288.7388,190.9219 L288.7388,193.6406 Z " fill="#000000"/><text fill="#000000" font-family="sans-serif" font-size="14" lengthAdjust="spacing" textLength="46" x="304.77" y="193.432">Nutzer</text><line style="stroke:#181818;stroke-width:0.5;" x1="249.27" x2="375.27" y1="204" y2="204"/><text fill="#000000" font-family="sans-serif" font-size="14" lengthAdjust="spacing" textLength="40" x="254.27" y="222.9659">Name</text><text fill="#000000" font-family="sans-serif" font-size="14" lengthAdjust="spacing" textLength="60" x="254.27" y="242.0339">Passwort</text><text fill="#000000" font-family="sans-serif" font-size="14" lengthAdjust="spacing" textLength="42" x="254.27" y="261.1018">E-Mail</text><text fill="#000000" font-family="sans-serif" font-size="14" lengthAdjust="spacing" textLength="76" x="254.27" y="280.1697">Nutzerrolle</text><line style="stroke:#181818;stroke-width:0.5;" x1="249.27" x2="375.27" y1="288.2717" y2="288.2717"/><text fill="#000000" font-family="sans-serif" font-size="14" lengthAdjust="spacing" textLength="116" x="254.27" y="307.2376">(Telefonnummer)</text></g><!--class Organisation--><g id="elem_Organisation"><rect codeLine="10" fill="#F1F1F1" height="86.1358" id="Organisation" rx="2.5" ry="2.5" style="stroke:#181818;stroke-width:0.5;" width="120" x="454.27" y="7"/><ellipse cx="469.27" cy="23" fill="#ADD1B2" rx="11" ry="11" style="stroke:#181818;stroke-width:1.0;"/><path d="M472.2388,28.6406 Q471.6606,28.9375 471.02,29.0781 Q470.3794,29.2344 469.6763,29.2344 Q467.1763,29.2344 465.8481,27.5938 Q464.5356,25.9375 464.5356,22.8125 Q464.5356,19.6875 465.8481,18.0313 Q467.1763,16.375 469.6763,16.375 Q470.3794,16.375 471.02,16.5313 Q471.6763,16.6875 472.2388,16.9844 L472.2388,19.7031 Q471.6138,19.125 471.02,18.8594 Q470.4263,18.5781 469.8013,18.5781 Q468.4575,18.5781 467.77,19.6563 Q467.0825,20.7188 467.0825,22.8125 Q467.0825,24.9063 467.77,25.9844 Q468.4575,27.0469 469.8013,27.0469 Q470.4263,27.0469 471.02,26.7813 Q471.6138,26.5 472.2388,25.9219 L472.2388,28.6406 Z " fill="#000000"/><text fill="#000000" font-family="sans-serif" font-size="14" lengthAdjust="spacing" textLength="88" x="483.27" y="28.432">Organisation</text><line style="stroke:#181818;stroke-width:0.5;" x1="455.27" x2="573.27" y1="39" y2="39"/><text fill="#000000" font-family="sans-serif" font-size="14" lengthAdjust="spacing" textLength="40" x="460.27" y="57.9659">Name</text><text fill="#000000" font-family="sans-serif" font-size="14" lengthAdjust="spacing" textLength="24" x="460.27" y="77.0339">Typ</text><line style="stroke:#181818;stroke-width:0.5;" x1="455.27" x2="573.27" y1="85.1358" y2="85.1358"/></g><!--class Gegenstandstyp--><g id="elem_Gegenstandstyp"><rect codeLine="15" fill="#F1F1F1" height="124.2717" id="Gegenstandstyp" rx="2.5" ry="2.5" style="stroke:#181818;stroke-width:0.5;" width="142" x="646.27" y="181.5"/><ellipse cx="661.27" cy="197.5" fill="#ADD1B2" rx="11" ry="11" style="stroke:#181818;stroke-width:1.0;"/><path d="M664.2388,203.1406 Q663.6606,203.4375 663.02,203.5781 Q662.3794,203.7344 661.6763,203.7344 Q659.1763,203.7344 657.8481,202.0938 Q656.5356,200.4375 656.5356,197.3125 Q656.5356,194.1875 657.8481,192.5313 Q659.1763,190.875 661.6763,190.875 Q662.3794,190.875 663.02,191.0313 Q663.6763,191.1875 664.2388,191.4844 L664.2388,194.2031 Q663.6138,193.625 663.02,193.3594 Q662.4263,193.0781 661.8013,193.0781 Q660.4575,193.0781 659.77,194.1563 Q659.0825,195.2188 659.0825,197.3125 Q659.0825,199.4063 659.77,200.4844 Q660.4575,201.5469 661.8013,201.5469 Q662.4263,201.5469 663.02,201.2813 Q663.6138,201 664.2388,200.4219 L664.2388,203.1406 Z " fill="#000000"/><text fill="#000000" font-family="sans-serif" font-size="14" lengthAdjust="spacing" textLength="110" x="675.27" y="202.932">Gegenstandstyp</text><line style="stroke:#181818;stroke-width:0.5;" x1="647.27" x2="787.27" y1="213.5" y2="213.5"/><text fill="#000000" font-family="sans-serif" font-size="14" lengthAdjust="spacing" textLength="40" x="652.27" y="232.4659">Name</text><text fill="#000000" font-family="sans-serif" font-size="14" lengthAdjust="spacing" textLength="65" x="652.27" y="251.5339">Kategorie</text><text fill="#000000" font-family="sans-serif" font-size="14" lengthAdjust="spacing" textLength="58" x="652.27" y="270.6018">Standort</text><text fill="#000000" font-family="sans-serif" font-size="14" lengthAdjust="spacing" textLength="94" x="652.27" y="289.6697">Beschreibung</text><line style="stroke:#181818;stroke-width:0.5;" x1="647.27" x2="787.27" y1="297.7717" y2="297.7717"/></g><!--class Gegenstandsexemplar--><g id="elem_Gegenstandsexemplar"><rect codeLine="22" fill="#F1F1F1" height="124.2717" id="Gegenstandsexemplar" rx="2.5" ry="2.5" style="stroke:#181818;stroke-width:0.5;" width="184" x="625.27" y="394"/><ellipse cx="640.27" cy="410" fill="#ADD1B2" rx="11" ry="11" style="stroke:#181818;stroke-width:1.0;"/><path d="M643.2388,415.6406 Q642.6606,415.9375 642.02,416.0781 Q641.3794,416.2344 640.6763,416.2344 Q638.1763,416.2344 636.8481,414.5938 Q635.5356,412.9375 635.5356,409.8125 Q635.5356,406.6875 636.8481,405.0313 Q638.1763,403.375 640.6763,403.375 Q641.3794,403.375 642.02,403.5313 Q642.6763,403.6875 643.2388,403.9844 L643.2388,406.7031 Q642.6138,406.125 642.02,405.8594 Q641.4263,405.5781 640.8013,405.5781 Q639.4575,405.5781 638.77,406.6563 Q638.0825,407.7188 638.0825,409.8125 Q638.0825,411.9063 638.77,412.9844 Q639.4575,414.0469 640.8013,414.0469 Q641.4263,414.0469 642.02,413.7813 Q642.6138,413.5 643.2388,412.9219 L643.2388,415.6406 Z " fill="#000000"/><text fill="#000000" font-family="sans-serif" font-size="14" lengthAdjust="spacing" textLength="152" x="654.27" y="415.432">Gegenstandsexemplar</text><line style="stroke:#181818;stroke-width:0.5;" x1="626.27" x2="808.27" y1="426" y2="426"/><text fill="#000000" font-family="sans-serif" font-size="14" lengthAdjust="spacing" textLength="115" x="631.27" y="444.9659">Inventarnummer</text><text fill="#000000" font-family="sans-serif" font-size="14" lengthAdjust="spacing" textLength="94" x="631.27" y="464.0339">Beschreibung</text><text fill="#000000" font-family="sans-serif" font-size="14" lengthAdjust="spacing" textLength="55" x="631.27" y="483.1018">Zustand</text><text fill="#000000" font-family="sans-serif" font-size="14" lengthAdjust="spacing" textLength="140" x="631.27" y="502.1697">Verf&#252;gbarkeitsstatus</text><line style="stroke:#181818;stroke-width:0.5;" x1="626.27" x2="808.27" y1="510.2717" y2="510.2717"/></g><!--class Ausleihanfrage--><g id="elem_Ausleihanfrage"><rect codeLine="29" fill="#F1F1F1" height="124.2717" id="Ausleihanfrage" rx="2.5" ry="2.5" style="stroke:#181818;stroke-width:0.5;" width="144" x="240.27" y="394"/><ellipse cx="259.32" cy="410" fill="#ADD1B2" rx="11" ry="11" style="stroke:#181818;stroke-width:1.0;"/><path d="M262.2888,415.6406 Q261.7106,415.9375 261.07,416.0781 Q260.4294,416.2344 259.7263,416.2344 Q257.2263,416.2344 255.8981,414.5938 Q254.5856,412.9375 254.5856,409.8125 Q254.5856,406.6875 255.8981,405.0313 Q257.2263,403.375 259.7263,403.375 Q260.4294,403.375 261.07,403.5313 Q261.7263,403.6875 262.2888,403.9844 L262.2888,406.7031 Q261.6638,406.125 261.07,405.8594 Q260.4763,405.5781 259.8513,405.5781 Q258.5075,405.5781 257.82,406.6563 Q257.1325,407.7188 257.1325,409.8125 Q257.1325,411.9063 257.82,412.9844 Q258.5075,414.0469 259.8513,414.0469 Q260.4763,414.0469 261.07,413.7813 Q261.6638,413.5 262.2888,412.9219 L262.2888,415.6406 Z " fill="#000000"/><text fill="#000000" font-family="sans-serif" font-size="14" lengthAdjust="spacing" textLength="103" x="274.22" y="415.432">Ausleihanfrage</text><line style="stroke:#181818;stroke-width:0.5;" x1="241.27" x2="383.27" y1="426" y2="426"/><text fill="#000000" font-family="sans-serif" font-size="14" lengthAdjust="spacing" textLength="76" x="246.27" y="444.9659">Startdatum</text><text fill="#000000" font-family="sans-serif" font-size="14" lengthAdjust="spacing" textLength="70" x="246.27" y="464.0339">Enddatum</text><text fill="#000000" font-family="sans-serif" font-size="14" lengthAdjust="spacing" textLength="42" x="246.27" y="483.1018">Status</text><line style="stroke:#181818;stroke-width:0.5;" x1="241.27" x2="383.27" y1="491.2038" y2="491.2038"/><text fill="#000000" font-family="sans-serif" font-size="14" lengthAdjust="spacing" textLength="132" x="246.27" y="510.1697">(Ablehnungsgrund)</text></g><!--class Ausleihe--><g id="elem_Ausleihe"><rect codeLine="37" fill="#F1F1F1" height="143.3396" id="Ausleihe" rx="2.5" ry="2.5" style="stroke:#181818;stroke-width:0.5;" width="130" x="389.27" y="781"/><ellipse cx="422.27" cy="797" fill="#ADD1B2" rx="11" ry="11" style="stroke:#181818;stroke-width:1.0;"/><path d="M425.2388,802.6406 Q424.6606,802.9375 424.02,803.0781 Q423.3794,803.2344 422.6763,803.2344 Q420.1763,803.2344 418.8481,801.5938 Q417.5356,799.9375 417.5356,796.8125 Q417.5356,793.6875 418.8481,792.0313 Q420.1763,790.375 422.6763,790.375 Q423.3794,790.375 424.02,790.5313 Q424.6763,790.6875 425.2388,790.9844 L425.2388,793.7031 Q424.6138,793.125 424.02,792.8594 Q423.4263,792.5781 422.8013,792.5781 Q421.4575,792.5781 420.77,793.6563 Q420.0825,794.7188 420.0825,796.8125 Q420.0825,798.9063 420.77,799.9844 Q421.4575,801.0469 422.8013,801.0469 Q423.4263,801.0469 424.02,800.7813 Q424.6138,800.5 425.2388,799.9219 L425.2388,802.6406 Z " fill="#000000"/><text fill="#000000" font-family="sans-serif" font-size="14" lengthAdjust="spacing" textLength="58" x="440.27" y="802.432">Ausleihe</text><line style="stroke:#181818;stroke-width:0.5;" x1="390.27" x2="518.27" y1="813" y2="813"/><text fill="#000000" font-family="sans-serif" font-size="14" lengthAdjust="spacing" textLength="76" x="395.27" y="831.9659">Startdatum</text><text fill="#000000" font-family="sans-serif" font-size="14" lengthAdjust="spacing" textLength="70" x="395.27" y="851.0339">Enddatum</text><text fill="#000000" font-family="sans-serif" font-size="14" lengthAdjust="spacing" textLength="42" x="395.27" y="870.1018">Status</text><text fill="#000000" font-family="sans-serif" font-size="14" lengthAdjust="spacing" textLength="112" x="395.27" y="889.1697">&#220;bergabetermin</text><line style="stroke:#181818;stroke-width:0.5;" x1="390.27" x2="518.27" y1="897.2717" y2="897.2717"/><text fill="#000000" font-family="sans-serif" font-size="14" lengthAdjust="spacing" textLength="118" x="395.27" y="916.2376">(R&#252;ckgabedatum)</text></g><!--class Reservierung--><g id="elem_Reservierung"><rect codeLine="45" fill="#F1F1F1" height="105.2038" id="Reservierung" rx="2.5" ry="2.5" style="stroke:#181818;stroke-width:0.5;" width="122" x="393.27" y="597"/><ellipse cx="408.27" cy="613" fill="#ADD1B2" rx="11" ry="11" style="stroke:#181818;stroke-width:1.0;"/><path d="M411.2388,618.6406 Q410.6606,618.9375 410.02,619.0781 Q409.3794,619.2344 408.6763,619.2344 Q406.1763,619.2344 404.8481,617.5938 Q403.5356,615.9375 403.5356,612.8125 Q403.5356,609.6875 404.8481,608.0313 Q406.1763,606.375 408.6763,606.375 Q409.3794,606.375 410.02,606.5313 Q410.6763,606.6875 411.2388,606.9844 L411.2388,609.7031 Q410.6138,609.125 410.02,608.8594 Q409.4263,608.5781 408.8013,608.5781 Q407.4575,608.5781 406.77,609.6563 Q406.0825,610.7188 406.0825,612.8125 Q406.0825,614.9063 406.77,615.9844 Q407.4575,617.0469 408.8013,617.0469 Q409.4263,617.0469 410.02,616.7813 Q410.6138,616.5 411.2388,615.9219 L411.2388,618.6406 Z " fill="#000000"/><text fill="#000000" font-family="sans-serif" font-size="14" lengthAdjust="spacing" textLength="90" x="422.27" y="618.432">Reservierung</text><line style="stroke:#181818;stroke-width:0.5;" x1="394.27" x2="514.27" y1="629" y2="629"/><text fill="#000000" font-family="sans-serif" font-size="14" lengthAdjust="spacing" textLength="76" x="399.27" y="647.9659">Startdatum</text><text fill="#000000" font-family="sans-serif" font-size="14" lengthAdjust="spacing" textLength="70" x="399.27" y="667.0339">Enddatum</text><text fill="#000000" font-family="sans-serif" font-size="14" lengthAdjust="spacing" textLength="42" x="399.27" y="686.1018">Status</text><line style="stroke:#181818;stroke-width:0.5;" x1="394.27" x2="514.27" y1="694.2038" y2="694.2038"/></g><!--class Zustandsprotokoll--><g id="elem_Zustandsprotokoll"><rect codeLine="51" fill="#F1F1F1" height="105.2038" id="Zustandsprotokoll" rx="2.5" ry="2.5" style="stroke:#181818;stroke-width:0.5;" width="153" x="198.77" y="1012.5"/><ellipse cx="213.77" cy="1028.5" fill="#ADD1B2" rx="11" ry="11" style="stroke:#181818;stroke-width:1.0;"/><path d="M216.7388,1034.1406 Q216.1606,1034.4375 215.52,1034.5781 Q214.8794,1034.7344 214.1763,1034.7344 Q211.6763,1034.7344 210.3481,1033.0938 Q209.0356,1031.4375 209.0356,1028.3125 Q209.0356,1025.1875 210.3481,1023.5313 Q211.6763,1021.875 214.1763,1021.875 Q214.8794,1021.875 215.52,1022.0313 Q216.1763,1022.1875 216.7388,1022.4844 L216.7388,1025.2031 Q216.1138,1024.625 215.52,1024.3594 Q214.9263,1024.0781 214.3013,1024.0781 Q212.9575,1024.0781 212.27,1025.1563 Q211.5825,1026.2188 211.5825,1028.3125 Q211.5825,1030.4063 212.27,1031.4844 Q212.9575,1032.5469 214.3013,1032.5469 Q214.9263,1032.5469 215.52,1032.2813 Q216.1138,1032 216.7388,1031.4219 L216.7388,1034.1406 Z " fill="#000000"/><text fill="#000000" font-family="sans-serif" font-size="14" lengthAdjust="spacing" textLength="121" x="227.77" y="1033.932">Zustandsprotokoll</text><line style="stroke:#181818;stroke-width:0.5;" x1="199.77" x2="350.77" y1="1044.5" y2="1044.5"/><text fill="#000000" font-family="sans-serif" font-size="14" lengthAdjust="spacing" textLength="24" x="204.77" y="1063.4659">Typ</text><text fill="#000000" font-family="sans-serif" font-size="14" lengthAdjust="spacing" textLength="35" x="204.77" y="1082.5339">Notiz</text><line style="stroke:#181818;stroke-width:0.5;" x1="199.77" x2="350.77" y1="1090.6358" y2="1090.6358"/><text fill="#000000" font-family="sans-serif" font-size="14" lengthAdjust="spacing" textLength="43" x="204.77" y="1109.6018">(Fotos)</text></g><!--class Benachrichtigung--><g id="elem_Benachrichtigung"><rect codeLine="57" fill="#F1F1F1" height="105.2038" id="Benachrichtigung" rx="2.5" ry="2.5" style="stroke:#181818;stroke-width:0.5;" width="153" x="51.77" y="403.5"/><ellipse cx="66.77" cy="419.5" fill="#ADD1B2" rx="11" ry="11" style="stroke:#181818;stroke-width:1.0;"/><path d="M69.7388,425.1406 Q69.1606,425.4375 68.52,425.5781 Q67.8794,425.7344 67.1763,425.7344 Q64.6763,425.7344 63.3481,424.0938 Q62.0356,422.4375 62.0356,419.3125 Q62.0356,416.1875 63.3481,414.5313 Q64.6763,412.875 67.1763,412.875 Q67.8794,412.875 68.52,413.0313 Q69.1763,413.1875 69.7388,413.4844 L69.7388,416.2031 Q69.1138,415.625 68.52,415.3594 Q67.9263,415.0781 67.3013,415.0781 Q65.9575,415.0781 65.27,416.1563 Q64.5825,417.2188 64.5825,419.3125 Q64.5825,421.4063 65.27,422.4844 Q65.9575,423.5469 67.3013,423.5469 Q67.9263,423.5469 68.52,423.2813 Q69.1138,423 69.7388,422.4219 L69.7388,425.1406 Z " fill="#000000"/><text fill="#000000" font-family="sans-serif" font-size="14" lengthAdjust="spacing" textLength="121" x="80.77" y="424.932">Benachrichtigung</text><line style="stroke:#181818;stroke-width:0.5;" x1="52.77" x2="203.77" y1="435.5" y2="435.5"/><text fill="#000000" font-family="sans-serif" font-size="14" lengthAdjust="spacing" textLength="24" x="57.77" y="454.4659">Typ</text><text fill="#000000" font-family="sans-serif" font-size="14" lengthAdjust="spacing" textLength="40" x="57.77" y="473.5339">Inhalt</text><text fill="#000000" font-family="sans-serif" font-size="14" lengthAdjust="spacing" textLength="42" x="57.77" y="492.6018">Status</text><line style="stroke:#181818;stroke-width:0.5;" x1="52.77" x2="203.77" y1="500.7038" y2="500.7038"/></g><!--class AusleihHistorie--><g id="elem_AusleihHistorie"><rect codeLine="65" fill="#F1F1F1" height="124.2717" id="AusleihHistorie" rx="2.5" ry="2.5" style="stroke:#181818;stroke-width:0.5;" width="134" x="387.27" y="1003"/><ellipse cx="402.27" cy="1019" fill="#ADD1B2" rx="11" ry="11" style="stroke:#181818;stroke-width:1.0;"/><path d="M405.2388,1024.6406 Q404.6606,1024.9375 404.02,1025.0781 Q403.3794,1025.2344 402.6763,1025.2344 Q400.1763,1025.2344 398.8481,1023.5938 Q397.5356,1021.9375 397.5356,1018.8125 Q397.5356,1015.6875 398.8481,1014.0313 Q400.1763,1012.375 402.6763,1012.375 Q403.3794,1012.375 404.02,1012.5313 Q404.6763,1012.6875 405.2388,1012.9844 L405.2388,1015.7031 Q404.6138,1015.125 404.02,1014.8594 Q403.4263,1014.5781 402.8013,1014.5781 Q401.4575,1014.5781 400.77,1015.6563 Q400.0825,1016.7188 400.0825,1018.8125 Q400.0825,1020.9063 400.77,1021.9844 Q401.4575,1023.0469 402.8013,1023.0469 Q403.4263,1023.0469 404.02,1022.7813 Q404.6138,1022.5 405.2388,1021.9219 L405.2388,1024.6406 Z " fill="#000000"/><text fill="#000000" font-family="sans-serif" font-size="14" lengthAdjust="spacing" textLength="102" x="416.27" y="1024.432">AusleihHistorie</text><line style="stroke:#181818;stroke-width:0.5;" x1="388.27" x2="520.27" y1="1035" y2="1035"/><text fill="#000000" font-family="sans-serif" font-size="14" lengthAdjust="spacing" textLength="94" x="393.27" y="1053.9659">Ausleihdatum</text><text fill="#000000" font-family="sans-serif" font-size="14" lengthAdjust="spacing" textLength="110" x="393.27" y="1073.0339">R&#252;ckgabedatum</text><text fill="#000000" font-family="sans-serif" font-size="14" lengthAdjust="spacing" textLength="100" x="393.27" y="1092.1018">ZustandVorher</text><text fill="#000000" font-family="sans-serif" font-size="14" lengthAdjust="spacing" textLength="113" x="393.27" y="1111.1697">ZustandNachher</text><line style="stroke:#181818;stroke-width:0.5;" x1="388.27" x2="520.27" y1="1119.2717" y2="1119.2717"/></g><!--class Standort--><g id="elem_Standort"><rect codeLine="72" fill="#F1F1F1" height="86.1358" id="Standort" rx="2.5" ry="2.5" style="stroke:#181818;stroke-width:0.5;" width="106" x="789.27" y="606.5"/><ellipse cx="811.47" cy="622.5" fill="#ADD1B2" rx="11" ry="11" style="stroke:#181818;stroke-width:1.0;"/><path d="M814.4388,628.1406 Q813.8606,628.4375 813.22,628.5781 Q812.5794,628.7344 811.8763,628.7344 Q809.3763,628.7344 808.0481,627.0938 Q806.7356,625.4375 806.7356,622.3125 Q806.7356,619.1875 808.0481,617.5313 Q809.3763,615.875 811.8763,615.875 Q812.5794,615.875 813.22,616.0313 Q813.8763,616.1875 814.4388,616.4844 L814.4388,619.2031 Q813.8138,618.625 813.22,618.3594 Q812.6263,618.0781 812.0013,618.0781 Q810.6575,618.0781 809.97,619.1563 Q809.2825,620.2188 809.2825,622.3125 Q809.2825,624.4063 809.97,625.4844 Q810.6575,626.5469 812.0013,626.5469 Q812.6263,626.5469 813.22,626.2813 Q813.8138,626 814.4388,625.4219 L814.4388,628.1406 Z " fill="#000000"/><text fill="#000000" font-family="sans-serif" font-size="14" lengthAdjust="spacing" textLength="58" x="827.07" y="627.932">Standort</text><line style="stroke:#181818;stroke-width:0.5;" x1="790.27" x2="894.27" y1="638.5" y2="638.5"/><text fill="#000000" font-family="sans-serif" font-size="14" lengthAdjust="spacing" textLength="40" x="795.27" y="657.4659">Name</text><text fill="#000000" font-family="sans-serif" font-size="14" lengthAdjust="spacing" textLength="94" x="795.27" y="676.5339">Beschreibung</text><line style="stroke:#181818;stroke-width:0.5;" x1="790.27" x2="894.27" y1="684.6358" y2="684.6358"/></g><!--class Kategorie--><g id="elem_Kategorie"><rect codeLine="77" fill="#F1F1F1" height="86.1358" id="Kategorie" rx="2.5" ry="2.5" style="stroke:#181818;stroke-width:0.5;" width="106" x="844.27" y="413"/><ellipse cx="863.32" cy="429" fill="#ADD1B2" rx="11" ry="11" style="stroke:#181818;stroke-width:1.0;"/><path d="M866.2887,434.6406 Q865.7106,434.9375 865.07,435.0781 Q864.4294,435.2344 863.7262,435.2344 Q861.2262,435.2344 859.8981,433.5938 Q858.5856,431.9375 858.5856,428.8125 Q858.5856,425.6875 859.8981,424.0313 Q861.2262,422.375 863.7262,422.375 Q864.4294,422.375 865.07,422.5313 Q865.7262,422.6875 866.2887,422.9844 L866.2887,425.7031 Q865.6637,425.125 865.07,424.8594 Q864.4762,424.5781 863.8512,424.5781 Q862.5075,424.5781 861.82,425.6563 Q861.1325,426.7188 861.1325,428.8125 Q861.1325,430.9063 861.82,431.9844 Q862.5075,433.0469 863.8512,433.0469 Q864.4762,433.0469 865.07,432.7813 Q865.6637,432.5 866.2887,431.9219 L866.2887,434.6406 Z " fill="#000000"/><text fill="#000000" font-family="sans-serif" font-size="14" lengthAdjust="spacing" textLength="65" x="878.22" y="434.432">Kategorie</text><line style="stroke:#181818;stroke-width:0.5;" x1="845.27" x2="949.27" y1="445" y2="445"/><text fill="#000000" font-family="sans-serif" font-size="14" lengthAdjust="spacing" textLength="40" x="850.27" y="463.9659">Name</text><text fill="#000000" font-family="sans-serif" font-size="14" lengthAdjust="spacing" textLength="94" x="850.27" y="483.0339">Beschreibung</text><line style="stroke:#181818;stroke-width:0.5;" x1="845.27" x2="949.27" y1="491.1358" y2="491.1358"/></g><!--class Nutzungsbedingungen--><g id="elem_Nutzungsbedingungen"><rect codeLine="82" fill="#F1F1F1" height="86.1358" id="Nutzungsbedingungen" rx="2.5" ry="2.5" style="stroke:#181818;stroke-width:0.5;" width="190" x="556.27" y="1022"/><ellipse cx="571.27" cy="1038" fill="#ADD1B2" rx="11" ry="11" style="stroke:#181818;stroke-width:1.0;"/><path d="M574.2388,1043.6406 Q573.6606,1043.9375 573.02,1044.0781 Q572.3794,1044.2344 571.6763,1044.2344 Q569.1763,1044.2344 567.8481,1042.5938 Q566.5356,1040.9375 566.5356,1037.8125 Q566.5356,1034.6875 567.8481,1033.0313 Q569.1763,1031.375 571.6763,1031.375 Q572.3794,1031.375 573.02,1031.5313 Q573.6763,1031.6875 574.2388,1031.9844 L574.2388,1034.7031 Q573.6138,1034.125 573.02,1033.8594 Q572.4263,1033.5781 571.8013,1033.5781 Q570.4575,1033.5781 569.77,1034.6563 Q569.0825,1035.7188 569.0825,1037.8125 Q569.0825,1039.9063 569.77,1040.9844 Q570.4575,1042.0469 571.8013,1042.0469 Q572.4263,1042.0469 573.02,1041.7813 Q573.6138,1041.5 574.2388,1040.9219 L574.2388,1043.6406 Z " fill="#000000"/><text fill="#000000" font-family="sans-serif" font-size="14" lengthAdjust="spacing" textLength="158" x="585.27" y="1043.432">Nutzungsbedingungen</text><line style="stroke:#181818;stroke-width:0.5;" x1="557.27" x2="745.27" y1="1054" y2="1054"/><text fill="#000000" font-family="sans-serif" font-size="14" lengthAdjust="spacing" textLength="28" x="562.27" y="1072.9659">Text</text><text fill="#000000" font-family="sans-serif" font-size="14" lengthAdjust="spacing" textLength="50" x="562.27" y="1092.0339">Version</text><line style="stroke:#181818;stroke-width:0.5;" x1="557.27" x2="745.27" y1="1100.1358" y2="1100.1358"/></g><!--link Nutzer to Ausleihanfrage--><g id="link_Nutzer_Ausleihanfrage"><path codeLine="87" d="M312.27,315.18 C312.27,340.62 312.27,363.09 312.27,387.67 " fill="none" id="Nutzer-to-Ausleihanfrage" style="stroke:#181818;stroke-width:1.0;"/><polygon fill="#181818" points="312.27,393.67,316.27,384.67,312.27,388.67,308.27,384.67,312.27,393.67" style="stroke:#181818;stroke-width:1.0;"/><text fill="#000000" font-family="sans-serif" font-size="13" lengthAdjust="spacing" textLength="41" x="313.27" y="359.897">erstellt</text><text fill="#000000" font-family="sans-serif" font-size="13" lengthAdjust="spacing" textLength="7" x="304.9091" y="337.3645">1</text><text fill="#000000" font-family="sans-serif" font-size="13" lengthAdjust="spacing" textLength="20" x="291.1138" y="382.4024">0..*</text></g><!--link Nutzer to Ausleihe--><g id="link_Nutzer_Ausleihe"><path codeLine="88" d="M248.23,258.66 C181.5,277.2 80.37,316.86 34.27,394 C6,441.31 10.3,468.37 34.27,518 C108.26,671.23 285.2312,773.0429 383.5512,820.2529 " fill="none" id="Nutzer-to-Ausleihe" style="stroke:#181818;stroke-width:1.0;"/><polygon fill="#181818" points="388.96,822.85,382.5782,815.3485,384.4527,820.6857,379.1154,822.5602,388.96,822.85" style="stroke:#181818;stroke-width:1.0;"/><text fill="#000000" font-family="sans-serif" font-size="13" lengthAdjust="spacing" textLength="33" x="63.27" y="562.897">t&#228;tigt</text><text fill="#000000" font-family="sans-serif" font-size="13" lengthAdjust="spacing" textLength="7" x="233.4207" y="256.3483">1</text><text fill="#000000" font-family="sans-serif" font-size="13" lengthAdjust="spacing" textLength="20" x="361.1937" y="815.8317">0..*</text></g><!--link Nutzer to Reservierung--><g id="link_Nutzer_Reservierung"><path codeLine="89" d="M361.65,315.32 C376.57,339.39 391.76,367.04 402.27,394 C428.56,461.44 441.5702,538.397 448.1802,590.877 " fill="none" id="Nutzer-to-Reservierung" style="stroke:#181818;stroke-width:1.0;"/><polygon fill="#181818" points="448.93,596.83,451.774,587.4007,448.3052,591.8692,443.8367,588.4004,448.93,596.83" style="stroke:#181818;stroke-width:1.0;"/><text fill="#000000" font-family="sans-serif" font-size="13" lengthAdjust="spacing" textLength="134" x="436.27" y="461.397">t&#228;tigt / bekommt / hat</text><text fill="#000000" font-family="sans-serif" font-size="13" lengthAdjust="spacing" textLength="7" x="359.1663" y="337.1415">1</text><text fill="#000000" font-family="sans-serif" font-size="13" lengthAdjust="spacing" textLength="20" x="426.7728" y="585.1603">0..*</text></g><!--link Organisation to Nutzer--><g id="link_Organisation_Nutzer"><path codeLine="90" d="M469.94,93.03 C442.53,119.01 411.2448,148.6725 380.7848,177.5425 " fill="none" id="Organisation-to-Nutzer" style="stroke:#181818;stroke-width:1.0;"/><polygon fill="#181818" points="376.43,181.67,385.7138,178.382,380.059,178.2305,380.2105,172.5756,376.43,181.67" style="stroke:#181818;stroke-width:1.0;"/><text fill="#000000" font-family="sans-serif" font-size="13" lengthAdjust="spacing" textLength="43" x="438.27" y="137.897">enth&#228;lt</text><text fill="#000000" font-family="sans-serif" font-size="13" lengthAdjust="spacing" textLength="7" x="455.3171" y="115.185">1</text><text fill="#000000" font-family="sans-serif" font-size="13" lengthAdjust="spacing" textLength="20" x="384.0778" y="171.3331">0..*</text></g><!--link Organisation to Gegenstandstyp--><g id="link_Organisation_Gegenstandstyp"><path codeLine="91" d="M558.82,93.03 C586.24,118.9 617.5055,148.3928 648.0355,177.1928 " fill="none" id="Organisation-to-Gegenstandstyp" style="stroke:#181818;stroke-width:1.0;"/><polygon fill="#181818" points="652.4,181.31,648.598,172.2246,648.7629,177.879,643.1085,178.0439,652.4,181.31" style="stroke:#181818;stroke-width:1.0;"/><text fill="#000000" font-family="sans-serif" font-size="13" lengthAdjust="spacing" textLength="56" x="610.27" y="137.897">verwaltet</text><text fill="#000000" font-family="sans-serif" font-size="13" lengthAdjust="spacing" textLength="7" x="558.3623" y="115.185">1</text><text fill="#000000" font-family="sans-serif" font-size="13" lengthAdjust="spacing" textLength="20" x="623.2752" y="169.6181">0..*</text></g><!--link Gegenstandstyp to Gegenstandsexemplar--><g id="link_Gegenstandstyp_Gegenstandsexemplar"><path codeLine="92" d="M717.27,305.67 C717.27,333.34 717.27,359.98 717.27,387.68 " fill="none" id="Gegenstandstyp-to-Gegenstandsexemplar" style="stroke:#181818;stroke-width:1.0;"/><polygon fill="#181818" points="717.27,393.68,721.27,384.68,717.27,388.68,713.27,384.68,717.27,393.68" style="stroke:#181818;stroke-width:1.0;"/><text fill="#000000" font-family="sans-serif" font-size="13" lengthAdjust="spacing" textLength="70" x="718.27" y="359.897">besteht aus</text><text fill="#000000" font-family="sans-serif" font-size="13" lengthAdjust="spacing" textLength="7" x="709.8653" y="327.7633">1</text><text fill="#000000" font-family="sans-serif" font-size="13" lengthAdjust="spacing" textLength="20" x="696.0513" y="381.9723">0..*</text></g><!--link Gegenstandsexemplar to Reservierung--><g id="link_Gegenstandsexemplar_Reservierung"><path codeLine="93" d="M625,505.97 C616.05,510.22 607.04,514.3 598.27,518 C559.81,534.23 541.26,521.19 509.27,548 C493.87,560.9 484.7174,573.8906 476.0674,591.4006 " fill="none" id="Gegenstandsexemplar-to-Reservierung" style="stroke:#181818;stroke-width:1.0;"/><polygon fill="#181818" points="473.41,596.78,480.9824,590.4825,475.6245,592.2972,473.8099,586.9393,473.41,596.78" style="stroke:#181818;stroke-width:1.0;"/><text fill="#000000" font-family="sans-serif" font-size="13" lengthAdjust="spacing" textLength="100" x="510.27" y="562.897">wird reserviert in</text><text fill="#000000" font-family="sans-serif" font-size="13" lengthAdjust="spacing" textLength="7" x="610.3683" y="506.189">1</text><text fill="#000000" font-family="sans-serif" font-size="13" lengthAdjust="spacing" textLength="20" x="454.6953" y="585.1033">0..*</text></g><!--link Gegenstandsexemplar to Ausleihe--><g id="link_Gegenstandsexemplar_Ausleihe"><path codeLine="94" d="M690.43,518.05 C657.24,592.2 601.44,712.2 571.27,751 C556.47,770.02 542.1985,784.2122 523.9685,799.6522 " fill="none" id="Gegenstandsexemplar-to-Ausleihe" style="stroke:#181818;stroke-width:1.0;"/><polygon fill="#181818" points="519.39,803.53,528.843,800.7656,523.2054,800.2985,523.6726,794.661,519.39,803.53" style="stroke:#181818;stroke-width:1.0;"/><text fill="#000000" font-family="sans-serif" font-size="13" lengthAdjust="spacing" textLength="115" x="653.27" y="654.897">wird ausgeliehen in</text><text fill="#000000" font-family="sans-serif" font-size="13" lengthAdjust="spacing" textLength="7" x="679.9219" y="540.1295">1</text><text fill="#000000" font-family="sans-serif" font-size="13" lengthAdjust="spacing" textLength="20" x="527.1368" y="794.5193">0..1</text></g><!--link Ausleihanfrage to Reservierung--><g id="link_Ausleihanfrage_Reservierung"><path codeLine="95" d="M346.53,518.06 C356.47,534.39 367.77,551.73 379.27,567 C386.79,576.98 391.3341,582.6653 399.8841,592.2853 " fill="none" id="Ausleihanfrage-to-Reservierung" style="stroke:#181818;stroke-width:1.0;"/><polygon fill="#181818" points="403.87,596.77,400.881,587.3857,400.5484,593.0327,394.9014,592.7002,403.87,596.77" style="stroke:#181818;stroke-width:1.0;"/><text fill="#000000" font-family="sans-serif" font-size="13" lengthAdjust="spacing" textLength="47" x="380.27" y="562.897">f&#252;hrt zu</text><text fill="#000000" font-family="sans-serif" font-size="13" lengthAdjust="spacing" textLength="7" x="343.0866" y="540.1406">1</text><text fill="#000000" font-family="sans-serif" font-size="13" lengthAdjust="spacing" textLength="20" x="375.3762" y="585.0919">0..1</text></g><!--link Reservierung to Ausleihe--><g id="link_Reservierung_Ausleihe"><path codeLine="96" d="M454.27,702 C454.27,725.96 454.27,748.84 454.27,774.81 " fill="none" id="Reservierung-to-Ausleihe" style="stroke:#181818;stroke-width:1.0;"/><polygon fill="#181818" points="454.27,780.81,458.27,771.81,454.27,775.81,450.27,771.81,454.27,780.81" style="stroke:#181818;stroke-width:1.0;"/><text fill="#000000" font-family="sans-serif" font-size="13" lengthAdjust="spacing" textLength="107" x="455.27" y="746.897">wird umgesetzt in</text><text fill="#000000" font-family="sans-serif" font-size="13" lengthAdjust="spacing" textLength="7" x="446.7997" y="724.1276">1</text><text fill="#000000" font-family="sans-serif" font-size="13" lengthAdjust="spacing" textLength="20" x="433.1763" y="768.9563">0..1</text></g><!--link Ausleihe to Zustandsprotokoll--><g id="link_Ausleihe_Zustandsprotokoll"><path codeLine="97" d="M389.21,922.29 C379.7,932.79 370.13,943.59 361.27,954 C345.4,972.65 332.3436,988.9561 317.8936,1007.6161 " fill="none" id="Ausleihe-to-Zustandsprotokoll" style="stroke:#181818;stroke-width:1.0;"/><polygon fill="#181818" points="314.22,1012.36,322.893,1007.6932,317.2813,1008.4067,316.5678,1002.7951,314.22,1012.36" style="stroke:#181818;stroke-width:1.0;"/><text fill="#000000" font-family="sans-serif" font-size="13" lengthAdjust="spacing" textLength="83" x="362.27" y="968.897">dokumentiert</text><text fill="#000000" font-family="sans-serif" font-size="13" lengthAdjust="spacing" textLength="7" x="374.2828" y="926.2949">1</text><text fill="#000000" font-family="sans-serif" font-size="13" lengthAdjust="spacing" textLength="20" x="298.2911" y="1000.6945">0..2</text></g><!--link Ausleihe to AusleihHistorie--><g id="link_Ausleihe_AusleihHistorie"><path codeLine="98" d="M454.27,924.18 C454.27,949.62 454.27,972.09 454.27,996.67 " fill="none" id="Ausleihe-to-AusleihHistorie" style="stroke:#181818;stroke-width:1.0;"/><polygon fill="#181818" points="454.27,1002.67,458.27,993.67,454.27,997.67,450.27,993.67,454.27,1002.67" style="stroke:#181818;stroke-width:1.0;"/><text fill="#000000" font-family="sans-serif" font-size="13" lengthAdjust="spacing" textLength="83" x="455.27" y="968.897">dokumentiert</text><text fill="#000000" font-family="sans-serif" font-size="13" lengthAdjust="spacing" textLength="20" x="433.2388" y="946.3645">1..*</text><text fill="#000000" font-family="sans-serif" font-size="13" lengthAdjust="spacing" textLength="7" x="446.8653" y="991.4024">1</text></g><!--link Gegenstandstyp to Kategorie--><g id="link_Gegenstandstyp_Kategorie"><path codeLine="99" d="M769.57,305.67 C798.95,340.02 830.9608,377.4597 857.2108,408.1597 " fill="none" id="Gegenstandstyp-to-Kategorie" style="stroke:#181818;stroke-width:1.0;"/><polygon fill="#181818" points="861.11,412.72,858.3013,403.2801,857.8606,408.9198,852.221,408.4791,861.11,412.72" style="stroke:#181818;stroke-width:1.0;"/><text fill="#000000" font-family="sans-serif" font-size="13" lengthAdjust="spacing" textLength="58" x="818.27" y="359.897">geh&#246;rt zu</text><text fill="#000000" font-family="sans-serif" font-size="13" lengthAdjust="spacing" textLength="20" x="754.4609" y="327.7633">0..*</text><text fill="#000000" font-family="sans-serif" font-size="13" lengthAdjust="spacing" textLength="7" x="847.5413" y="401.0882">1</text></g><!--link Gegenstandsexemplar to Standort--><g id="link_Gegenstandsexemplar_Standort"><path codeLine="100" d="M757.16,518.12 C775.95,546.91 794.6217,575.4948 811.5117,601.3848 " fill="none" id="Gegenstandsexemplar-to-Standort" style="stroke:#181818;stroke-width:1.0;"/><polygon fill="#181818" points="814.79,606.41,813.2227,596.6867,812.0581,602.2223,806.5224,601.0577,814.79,606.41" style="stroke:#181818;stroke-width:1.0;"/><text fill="#000000" font-family="sans-serif" font-size="13" lengthAdjust="spacing" textLength="90" x="787.27" y="562.897">befindet sich in</text><text fill="#000000" font-family="sans-serif" font-size="13" lengthAdjust="spacing" textLength="20" x="740.616" y="540.2076">0..*</text><text fill="#000000" font-family="sans-serif" font-size="13" lengthAdjust="spacing" textLength="7" x="802.6589" y="594.8096">1</text></g><!--link Nutzer to Benachrichtigung--><g id="link_Nutzer_Benachrichtigung"><path codeLine="101" d="M250.49,315.18 C225.22,344.08 200.4892,372.383 177.2592,398.953 " fill="none" id="Nutzer-to-Benachrichtigung" style="stroke:#181818;stroke-width:1.0;"/><polygon fill="#181818" points="173.31,403.47,182.2452,399.3273,176.601,399.7058,176.2225,394.0616,173.31,403.47" style="stroke:#181818;stroke-width:1.0;"/><text fill="#000000" font-family="sans-serif" font-size="13" lengthAdjust="spacing" textLength="35" x="221.27" y="359.897">erh&#228;lt</text><text fill="#000000" font-family="sans-serif" font-size="13" lengthAdjust="spacing" textLength="7" x="236.758" y="337.3645">1</text><text fill="#000000" font-family="sans-serif" font-size="13" lengthAdjust="spacing" textLength="20" x="158.2375" y="391.82">0..*</text></g><!--link Ausleihe to Nutzungsbedingungen--><g id="link_Ausleihe_Nutzungsbedingungen"><path codeLine="102" d="M519.32,923.01 C549.92,955.7 581.2999,989.2394 607.7599,1017.5094 " fill="none" id="Ausleihe-to-Nutzungsbedingungen" style="stroke:#181818;stroke-width:1.0;"/><polygon fill="#181818" points="611.86,1021.89,608.6302,1012.5858,608.4433,1018.2395,602.7895,1018.0526,611.86,1021.89" style="stroke:#181818;stroke-width:1.0;"/><text fill="#000000" font-family="sans-serif" font-size="13" lengthAdjust="spacing" textLength="60" x="565.27" y="968.897">akzeptiert</text><text fill="#000000" font-family="sans-serif" font-size="13" lengthAdjust="spacing" textLength="20" x="505.6852" y="946.0637">0..*</text><text fill="#000000" font-family="sans-serif" font-size="13" lengthAdjust="spacing" textLength="20" x="583.6765" y="1010.2863">0..1</text></g><!--SRC=[ZLGzRzim4DtrAmXFTG6dIKSD1HAWROAWRf4O6RfHrfaaH546UR8J5_qd7VCREcNJ7-kHilLLnSvacdhltjszEourTuxDIzo1PRyYnkOy1_hvGTVRmY8TFy- -SQNfy6u16bQ5CMMUWvrwSE3PGck8VaVHCWJxRWKtod5KXUc6N3ojMz1N460SSfCwV5ftORSSGHHM-VEz1zHPN85RIWigAOqO3GEFaAyrhwkuCHimo6sTwf3EsCyoaEZq07PLlOY4smmKEhh6qhK2bwNJe2GtAyi5XDYKbCMKOBblZaaFn_kQIdswJ3H8GqfEsDAaKn-k7- -DaQe_2L0t4q2mkJ8-zbtriipyLG1Fsqplm87TA215yPRe3N7V2xUs1HOPUHdOtYtof42ryx9Vw9lhg5s1uTHGjPIen46nvjmOoJNsX0RLNok7tk50sjyTiklNrrhrK5WPdDp_dvEylsWoEinATvR6XwQPiDDGF-3UHqf76Lydr2EzW4UiXyVHb7lyVeKc5nCsctrYa_Epi_UJuVZ4Z0W8cjfp5E-HM3rJQry3zjnkmEm3Io0hyjoV9CUejuk34Fl0b9D1MJthu-Z1miPi0tPBFWD6Wq-l4viLZIbDweD4ncb0nX37ozqgcp9xk4D6gt4go4MlkI40QGlG2YIPIX46NWt8WmpepP0al2kZteSJYcKk28qxxEZrbJvEHlOnPccHbJdvvAlj4aDp0hTLQxPhG1lQTDuZjqiHCm6o-bjNDzhMFhDPFE_gIfaKa3bw67oDuyFxt-FXzw8UmRQsZaZTpB5TZ1dFTh2k2_m7]--></g></svg>